<svg width="52" height="52" viewBox="0 0 52 52" fill="none" xmlns="http://www.w3.org/2000/svg">
<g clip-path="url(#clip0_1178_7)">
<path fill-rule="evenodd" clip-rule="evenodd" d="M25.9921 4.13323e-06C40.1759 -0.00807999 52.007 11.8436 52.007 26C52.007 40.1737 40.1774 51.99 25.9915 51.9807C22.2837 51.9781 18.5713 51.1944 15.151 49.6251L2.1803 51.9703C1.52255 52.0891 0.851635 51.8455 0.423552 51.3322C-0.0045278 50.8189 -0.123727 50.115 0.111441 49.4895L3.83326 39.5872C1.33304 35.5056 0.000234262 30.7814 0.000212234 26C0.000147145 11.8367 11.817 0.00470544 25.9921 4.13323e-06ZM17.0666 15.1793C18.6017 13.4108 21.0808 13.814 22.5524 15.1574L25.7543 18.0805C25.9417 18.2516 26.0509 18.4917 26.0566 18.7452C26.0624 18.9988 25.9642 19.2436 25.7849 19.4229C25.3791 19.8287 24.8562 20.6451 24.5786 21.5658C24.2991 22.4927 24.3223 23.3295 24.7094 23.9326C25.2089 24.7107 25.7304 25.4237 26.4601 26.0518C27.184 26.6751 28.1483 27.2444 29.5582 27.6735C30.0651 27.8278 30.7512 27.8256 31.4509 27.6491C32.1503 27.4725 32.7578 27.1482 33.134 26.772C33.3117 26.5943 33.5538 26.4962 33.8051 26.5002C34.0564 26.5041 34.2953 26.6097 34.4674 26.7929L37.3697 29.8825C38.9788 31.5954 39.1544 34.4679 37.0965 36.0442C34.6648 37.9065 30.6999 39.9041 26.8203 37.414C22.1121 34.3915 17.9328 30.4088 14.8936 25.6751C13.8632 24.0702 13.85 22.0887 14.3317 20.2603C14.8164 18.4203 15.8321 16.6015 17.0666 15.1793Z" fill="#02B888"/>
</g>
<defs>
<clipPath id="clip0_1178_7">
<rect width="52" height="52" fill="white"/>
</clipPath>
</defs>
</svg>
